<svg xmlns="http://www.w3.org/2000/svg" enable-background="new 0 0 33 33" viewBox="0 0 33 33"><path fill="#ffe1da" d="M28.4,4.2c0.1,0.3,0.1,13.4,0.1,13.4c0,2.2-1.8,4-4,4h0c-1.1,0-2.1,0.9-2.1,2.1v2.8l3,2.4v-4.3h2.1
			c2.2,0,4-1.8,4-4V8.1C31.5,6.2,30.2,4.6,28.4,4.2z"/><path fill="#2e3238" d="M31.5 9.8c-.5 0-1 .5-1 1 0 0 0 0 0 .1l0 9.7c0 1.6-1.3 3-3 3h-2.1c-.3 0-.5.1-.7.3-.2.2-.3.4-.3.7v2.2l-3.7-3c-.2-.1-.4-.2-.6-.2H5.5 5.4c-.5 0-1 .4-1 1 0 .5.4 1 1 1h6c0 0 .1 0 .1 0h8.3l5 4.1c.2.1.4.2.6.2.2 0 .3 0 .4-.1.3-.2.6-.5.6-.9v-3.3h1.1c2.8 0 5-2.2 5-5v-9.8C32.5 10.3 32 9.8 31.5 9.8zM2.5 20.6V8.1c0-1.6 1.3-3 3-3h22c1.6 0 2.9 1.3 3 2.8 0 .5.5 1 1.1.9.6 0 1-.5.9-1-.2-2.6-2.3-4.7-4.9-4.7H5.5c-2.8 0-5 2.2-5 5v12.5c0 1.3.5 2.6 1.5 3.6.2.2.4.3.7.3.3 0 .5-.1.7-.3.2-.2.3-.4.3-.7 0-.3-.1-.5-.3-.7C2.8 22.2 2.5 21.4 2.5 20.6z"/><path fill="#2e3238" d="M7.9 13.8c0 .9.8 1.7 1.7 1.7.9 0 1.7-.8 1.7-1.7 0-.9-.8-1.7-1.7-1.7C8.6 12.1 7.9 12.8 7.9 13.8zM14.8 13.8c0 .9.8 1.7 1.7 1.7.9 0 1.7-.8 1.7-1.7 0-.9-.8-1.7-1.7-1.7C15.6 12.1 14.8 12.8 14.8 13.8zM21.7 13.8c0 .9.8 1.7 1.7 1.7s1.7-.8 1.7-1.7c0-.9-.8-1.7-1.7-1.7S21.7 12.8 21.7 13.8z"/></svg>