<svg xmlns="http://www.w3.org/2000/svg" width="59.781" height="60" viewBox="0 0 59.781 60"><path fill-rule="evenodd" d="M59.666 24.36l-5.981-15.1A1.994 1.994 0 0 0 51.831 8h-6.419a10.01 10.01 0 0 0-9.769-8H23.682a9.993 9.993 0 0 0-9.769 8h-5.94a1.993 1.993 0 0 0-1.854 1.26L.138 24.36a2 2 0 0 0 1.854 2.74c.777 0 1.116.32 1.993 1.3a11.88 11.88 0 0 0 1 1.06V58a2 2 0 0 0 1.994 2h7.974a2 2 0 0 0 1.994-2V41.68h3.987V58a2 2 0 0 0 1.993 2h29.9a2 2 0 0 0 1.993-2V29.46c.379-.36.7-.72 1-1.06.877-.98 1.216-1.3 1.994-1.3a2.038 2.038 0 0 0 1.654-.88 2.06 2.06 0 0 0 .198-1.86zM23.682 4h11.961a5.983 5.983 0 0 1 5.622 4h-23.2a5.944 5.944 0 0 1 5.617-4zm27.152 52H24.918V39.68a2 2 0 0 0-1.994-2H14.95a2 2 0 0 0-1.993 2V56H8.969V31.1a6.3 6.3 0 0 0 4.984-2.7c.877-.98 1.216-1.3 1.994-1.3.757 0 1.116.32 1.974 1.3a5.949 5.949 0 0 0 9.967 0c.878-.98 1.216-1.3 1.994-1.3s1.116.32 1.994 1.3a5.949 5.949 0 0 0 9.967 0c.878-.98 1.216-1.3 1.994-1.3s1.116.32 1.993 1.3c1 1.14 2.333 2.7 4.984 2.7h.02V56zm1.994-30.22c-.877.98-1.236 1.32-2.014 1.32s-1.116-.34-1.993-1.32a5.974 5.974 0 0 0-9.968 0c-.877.98-1.216 1.32-1.994 1.32s-1.116-.34-1.993-1.32a5.974 5.974 0 0 0-9.968 0c-.877.98-1.216 1.32-1.994 1.32s-1.116-.34-1.973-1.32a5.974 5.974 0 0 0-9.968 0c-.877.98-1.216 1.32-1.994 1.32s-1.116-.34-1.993-1.32a7.862 7.862 0 0 0-2.313-2.02L9.328 12h41.147l4.665 11.74a8.1 8.1 0 0 0-2.312 2.04zm-7.974 26.227H30.899a2 2 0 0 1-1.994-2v-12.75a2 2 0 0 1 1.994-2h13.955a2 2 0 0 1 1.993 2v12.75a2 2 0 0 1-1.993 2zm-11.962-4h9.968v-8.75h-9.968v8.75z"/></svg>